# xmcd CD database file
#
# Track frame offsets:
#	150
#	50885
#	61711
#	85024
#	115569
#	139051
#	166920
#	190496
#	219675
#	247315
#
# Disc length: 4031 seconds
#
# Revision: 0
# Processed by: cddbd v1.5.2PL0 Copyright (c) Steve Scherf et al.
# Submitted via: CDex 1.51
#
DISCID=900fbd0a
DTITLE=Sonny Rollins - Bouncin' his best Tunes
DYEAR=2007
DGENRE=Jazz
TTITLE0=Blue Seven
TTITLE1=Mambo Bounce
TTITLE2=Paul's Pal
TTITLE3=St.Thomas
TTITLE4=The Way You Look Tonight
TTITLE5=When Your Lover Has Gone
TTITLE6=Strode Rode
TTITLE7=You Don't Know What Love Is
TTITLE8=It's All Right With Me
TTITLE9=Tenor Madness
EXTD=YEAR: 2007
EXTT0=
EXTT1=
EXTT2=
EXTT3=
EXTT4=
EXTT5=
EXTT6=
EXTT7=
EXTT8=
EXTT9=
PLAYORDER=
